HIERARCHY
ROOT newVegas:Hips
{
	OFFSET 0.000000 96.479958 0.000000
	CHANNELS 6 Xposition Yposition Zposition Xrotation Yrotation Zrotation
	JOINT newVegas:Pelvis
	{
		OFFSET 0.000000 0.000000 0.000000
		CHANNELS 3 Xrotation Yrotation Zrotation
		JOINT newVegas:LeftUpLeg
		{
			OFFSET 18.735201 -5.666702 -4.541200
			CHANNELS 3 Xrotation Yrotation Zrotation
			JOINT newVegas:LeftLeg
			{
				OFFSET -0.021200 -31.938179 0.493100
				CHANNELS 3 Xrotation Yrotation Zrotation
				JOINT newVegas:LeftFoot
				{
					OFFSET 0.021200 -31.938179 -4.336299
					CHANNELS 3 Xrotation Yrotation Zrotation
					JOINT newVegas:LeftToeBase
					{
						OFFSET 0.943001 -26.722000 15.023500
						CHANNELS 3 Xrotation Yrotation Zrotation
						End Site
						{
							OFFSET 0.000000 30.670183 0.000000
						}
					}
				}
				JOINT newVegas:Left_PantLeg
				{
					OFFSET 0.663870 -9.044666 -1.108900
					CHANNELS 3 Xrotation Yrotation Zrotation
					End Site
					{
						OFFSET 1.415995 20.635357 0.000000
					}
				}
			}
		}
		JOINT newVegas:RightUpLeg
		{
			OFFSET -18.735201 -5.666702 -4.541200
			CHANNELS 3 Xrotation Yrotation Zrotation
			JOINT newVegas:RightLeg
			{
				OFFSET 0.018946 -31.938133 0.493100
				CHANNELS 3 Xrotation Yrotation Zrotation
				JOINT newVegas:RightFoot
				{
					OFFSET -0.018946 -31.938126 -4.336299
					CHANNELS 3 Xrotation Yrotation Zrotation
					JOINT newVegas:RightToeBase
					{
						OFFSET -0.943001 -26.722004 15.023500
						CHANNELS 3 Xrotation Yrotation Zrotation
						End Site
						{
							OFFSET 0.000000 30.670187 0.000000
						}
					}
				}
				JOINT newVegas:Right_PantLeg
				{
					OFFSET -0.661674 -9.044716 -1.108900
					CHANNELS 3 Xrotation Yrotation Zrotation
					End Site
					{
						OFFSET -1.415958 20.635269 0.000000
					}
				}
			}
		}
	}
	JOINT newVegas:Spine
	{
		OFFSET 0.000000 10.199997 -0.299500
		CHANNELS 3 Xrotation Yrotation Zrotation
		JOINT newVegas:Spine1
		{
			OFFSET 0.000000 11.900002 -1.516600
			CHANNELS 3 Xrotation Yrotation Zrotation
			JOINT newVegas:Spine2
			{
				OFFSET 0.000000 13.600006 -2.842500
				CHANNELS 3 Xrotation Yrotation Zrotation
				JOINT newVegas:Neck
				{
					OFFSET 0.000000 9.624100 -2.890100
					CHANNELS 3 Xrotation Yrotation Zrotation
					JOINT newVegas:Head
					{
						OFFSET 0.000000 14.068802 -1.351900
						CHANNELS 3 Xrotation Yrotation Zrotation
						JOINT newVegas:Hair_Back
						{
							OFFSET 0.000000 3.231903 -17.524799
							CHANNELS 3 Xrotation Yrotation Zrotation
							End Site
							{
								OFFSET 0.000000 19.849884 0.000000
							}
						}
						JOINT newVegas:Hair_Front
						{
							OFFSET 0.000000 31.260406 4.573800
							CHANNELS 3 Xrotation Yrotation Zrotation
							JOINT newVegas:Hair_Front1
							{
								OFFSET 0.000000 2.284103 11.993300
								CHANNELS 3 Xrotation Yrotation Zrotation
								JOINT newVegas:Hair_Front2
								{
									OFFSET 0.000000 2.284103 11.993300
									CHANNELS 3 Xrotation Yrotation Zrotation
									End Site
									{
										OFFSET 0.000000 12.208862 0.000000
									}
								}
							}
						}
						JOINT newVegas:Jowel
						{
							OFFSET 0.000000 -7.458206 6.864100
							CHANNELS 3 Xrotation Yrotation Zrotation
							End Site
							{
								OFFSET 0.000000 19.849884 0.000000
							}
						}
					}
				}
				JOINT newVegas:LeftShoulder
				{
					OFFSET 15.263000 10.923401 -0.547700
					CHANNELS 3 Xrotation Yrotation Zrotation
					JOINT newVegas:LeftArm
					{
						OFFSET 25.438599 -2.830597 -13.032500
						CHANNELS 3 Xrotation Yrotation Zrotation
						JOINT newVegas:LeftForeArm
						{
							OFFSET 29.960503 0.000000 0.000000
							CHANNELS 3 Xrotation Yrotation Zrotation
							JOINT newVegas:LeftHand
							{
								OFFSET 27.849251 0.000000 0.000000
								CHANNELS 3 Xrotation Yrotation Zrotation
								JOINT newVegas:LeftHandThumb1
								{
									OFFSET 4.487587 -3.305161 6.305391
									CHANNELS 3 Xrotation Yrotation Zrotation
									JOINT newVegas:LeftHandThumb2
									{
										OFFSET 5.480453 -3.164139 3.164143
										CHANNELS 3 Xrotation Yrotation Zrotation
										JOINT newVegas:LeftHandThumb3
										{
											OFFSET 5.159721 -2.978973 2.978967
											CHANNELS 3 Xrotation Yrotation Zrotation
											End Site
											{
												OFFSET 2.494507 5.926697 1.738678
											}
										}
									}
								}
								JOINT newVegas:LeftHandIndex1
								{
									OFFSET 18.578728 -0.527832 5.208049
									CHANNELS 3 Xrotation Yrotation Zrotation
									JOINT newVegas:LeftHandIndex2
									{
										OFFSET 3.192009 0.000000 0.000000
										CHANNELS 3 Xrotation Yrotation Zrotation
										JOINT newVegas:LeftHandIndex3
										{
											OFFSET 3.835129 0.000000 0.000000
											CHANNELS 3 Xrotation Yrotation Zrotation
											End Site
											{
												OFFSET -0.034599 3.816971 0.371180
											}
										}
									}
								}
								JOINT newVegas:LeftHandMiddle1
								{
									OFFSET 18.476105 0.000000 0.000000
									CHANNELS 3 Xrotation Yrotation Zrotation
									JOINT newVegas:LeftHandMiddle2
									{
										OFFSET 3.324875 0.000000 0.000000
										CHANNELS 3 Xrotation Yrotation Zrotation
										JOINT newVegas:LeftHandMiddle3
										{
											OFFSET 4.596550 0.000000 0.000000
											CHANNELS 3 Xrotation Yrotation Zrotation
											End Site
											{
												OFFSET 0.057701 4.578827 0.399218
											}
										}
									}
								}
								JOINT newVegas:LeftHandRing1
								{
									OFFSET 17.732719 0.121887 -4.201567
									CHANNELS 3 Xrotation Yrotation Zrotation
									JOINT newVegas:LeftHandRing2
									{
										OFFSET 2.733170 0.000000 0.000000
										CHANNELS 3 Xrotation Yrotation Zrotation
										JOINT newVegas:LeftHandRing3
										{
											OFFSET 3.178268 0.000000 0.000000
											CHANNELS 3 Xrotation Yrotation Zrotation
											End Site
											{
												OFFSET 0.119102 3.170624 0.185394
											}
										}
									}
								}
								JOINT newVegas:LeftHandPinky1
								{
									OFFSET 15.989624 -0.606689 -7.535461
									CHANNELS 3 Xrotation Yrotation Zrotation
									JOINT newVegas:LeftHandPinky2
									{
										OFFSET 2.538986 0.000000 0.000000
										CHANNELS 3 Xrotation Yrotation Zrotation
										JOINT newVegas:LeftHandPinky3
										{
											OFFSET 2.593102 0.000000 0.000000
											CHANNELS 3 Xrotation Yrotation Zrotation
											End Site
											{
												OFFSET -0.150902 2.584198 0.152708
											}
										}
									}
								}
							}
							JOINT newVegas:Left_Sleeve
							{
								OFFSET 0.267448 -0.649796 0.577675
								CHANNELS 3 Xrotation Yrotation Zrotation
								End Site
								{
									OFFSET 0.000000 15.991241 0.000000
								}
							}
							JOINT newVegas:Left_CapeC
							{
								OFFSET 15.715958 -8.608795 -6.935905
								CHANNELS 3 Xrotation Yrotation Zrotation
								JOINT newVegas:Left_CapeC1
								{
									OFFSET 0.000000 -8.688499 0.000000
									CHANNELS 3 Xrotation Yrotation Zrotation
									End Site
									{
										OFFSET 0.000000 8.688499 0.000000
									}
								}
							}
						}
						JOINT newVegas:Left_CapeB
						{
							OFFSET 26.118385 -8.608795 -7.079235
							CHANNELS 3 Xrotation Yrotation Zrotation
							JOINT newVegas:Left_CapeB1
							{
								OFFSET 0.000000 -8.688499 0.000000
								CHANNELS 3 Xrotation Yrotation Zrotation
								End Site
								{
									OFFSET 0.000000 8.688499 0.000000
								}
							}
						}
						JOINT newVegas:Left_CapeA
						{
							OFFSET 5.115639 -8.608795 -10.395809
							CHANNELS 3 Xrotation Yrotation Zrotation
							JOINT newVegas:Left_CapeA1
							{
								OFFSET 0.000000 -8.688499 0.000000
								CHANNELS 3 Xrotation Yrotation Zrotation
								End Site
								{
									OFFSET 0.000000 8.688499 0.000000
								}
							}
						}
					}
				}
				JOINT newVegas:RightShoulder
				{
					OFFSET -15.263000 10.923401 -0.547700
					CHANNELS 3 Xrotation Yrotation Zrotation
					JOINT newVegas:RightArm
					{
						OFFSET -25.438599 -2.830597 -13.032500
						CHANNELS 3 Xrotation Yrotation Zrotation
						JOINT newVegas:RightForeArm
						{
							OFFSET -29.960503 0.000000 0.000000
							CHANNELS 3 Xrotation Yrotation Zrotation
							JOINT newVegas:RightHand
							{
								OFFSET -27.849251 0.000000 0.000000
								CHANNELS 3 Xrotation Yrotation Zrotation
								JOINT newVegas:RightHandThumb1
								{
									OFFSET -4.487587 -3.305161 6.305391
									CHANNELS 3 Xrotation Yrotation Zrotation
									JOINT newVegas:RightHandThumb2
									{
										OFFSET -5.480453 -3.164139 3.164143
										CHANNELS 3 Xrotation Yrotation Zrotation
										JOINT newVegas:RightHandThumb3
										{
											OFFSET -5.159721 -2.978973 2.978967
											CHANNELS 3 Xrotation Yrotation Zrotation
											End Site
											{
												OFFSET -2.494507 5.926697 1.738678
											}
										}
									}
								}
								JOINT newVegas:RightHandIndex1
								{
									OFFSET -18.578728 -0.527832 5.208049
									CHANNELS 3 Xrotation Yrotation Zrotation
									JOINT newVegas:RightHandIndex2
									{
										OFFSET -3.192009 0.000000 0.000000
										CHANNELS 3 Xrotation Yrotation Zrotation
										JOINT newVegas:RightHandIndex3
										{
											OFFSET -3.835129 0.000000 0.000000
											CHANNELS 3 Xrotation Yrotation Zrotation
											End Site
											{
												OFFSET 0.034599 3.816971 0.371180
											}
										}
									}
								}
								JOINT newVegas:RightHandMiddle1
								{
									OFFSET -18.476105 0.000000 0.000000
									CHANNELS 3 Xrotation Yrotation Zrotation
									JOINT newVegas:RightHandMiddle2
									{
										OFFSET -3.324875 0.000000 0.000000
										CHANNELS 3 Xrotation Yrotation Zrotation
										JOINT newVegas:RightHandMiddle3
										{
											OFFSET -4.596550 0.000000 0.000000
											CHANNELS 3 Xrotation Yrotation Zrotation
											End Site
											{
												OFFSET -0.057701 4.578827 0.399218
											}
										}
									}
								}
								JOINT newVegas:RightHandRing1
								{
									OFFSET -17.732719 0.121887 -4.201567
									CHANNELS 3 Xrotation Yrotation Zrotation
									JOINT newVegas:RightHandRing2
									{
										OFFSET -2.733170 0.000000 0.000000
										CHANNELS 3 Xrotation Yrotation Zrotation
										JOINT newVegas:RightHandRing3
										{
											OFFSET -3.178268 0.000000 0.000000
											CHANNELS 3 Xrotation Yrotation Zrotation
											End Site
											{
												OFFSET -0.119102 3.170624 0.185394
											}
										}
									}
								}
								JOINT newVegas:RightHandPinky1
								{
									OFFSET -15.989624 -0.606689 -7.535461
									CHANNELS 3 Xrotation Yrotation Zrotation
									JOINT newVegas:RightHandPinky2
									{
										OFFSET -2.538986 0.000000 0.000000
										CHANNELS 3 Xrotation Yrotation Zrotation
										JOINT newVegas:RightHandPinky3
										{
											OFFSET -2.593102 0.000000 0.000000
											CHANNELS 3 Xrotation Yrotation Zrotation
											End Site
											{
												OFFSET 0.150902 2.584198 0.152708
											}
										}
									}
								}
							}
							JOINT newVegas:Right_CapeC
							{
								OFFSET -15.715958 -8.608795 -6.935905
								CHANNELS 3 Xrotation Yrotation Zrotation
								JOINT newVegas:Right_CapeC1
								{
									OFFSET 0.000000 -8.688499 0.000000
									CHANNELS 3 Xrotation Yrotation Zrotation
									End Site
									{
										OFFSET 0.000000 8.688499 0.000000
									}
								}
							}
							JOINT newVegas:Right_Sleeve
							{
								OFFSET -0.267448 -0.649994 0.577675
								CHANNELS 3 Xrotation Yrotation Zrotation
								End Site
								{
									OFFSET 0.000000 15.991302 0.000000
								}
							}
						}
						JOINT newVegas:Right_CapeA
						{
							OFFSET -5.115540 -8.608795 -10.395824
							CHANNELS 3 Xrotation Yrotation Zrotation
							JOINT newVegas:Right_CapeA1
							{
								OFFSET 0.000000 -8.688499 0.000000
								CHANNELS 3 Xrotation Yrotation Zrotation
								End Site
								{
									OFFSET 0.000000 8.688499 0.000000
								}
							}
						}
						JOINT newVegas:Right_CapeB
						{
							OFFSET -26.118187 -8.608795 -7.079266
							CHANNELS 3 Xrotation Yrotation Zrotation
							JOINT newVegas:Right_CapeB1
							{
								OFFSET 0.000000 -8.688499 0.000000
								CHANNELS 3 Xrotation Yrotation Zrotation
								End Site
								{
									OFFSET 0.000000 8.688499 0.000000
								}
							}
						}
					}
				}
				JOINT newVegas:Left_Collar
				{
					OFFSET 18.625099 8.655502 8.828100
					CHANNELS 3 Xrotation Yrotation Zrotation
					JOINT newVegas:Left_Collar1
					{
						OFFSET 14.783401 10.540405 -1.259500
						CHANNELS 3 Xrotation Yrotation Zrotation
						End Site
						{
							OFFSET 0.000000 18.199875 0.000000
						}
					}
				}
				JOINT newVegas:Collar_Back
				{
					OFFSET 0.000000 15.630707 -20.132601
					CHANNELS 3 Xrotation Yrotation Zrotation
					End Site
					{
						OFFSET 0.000000 22.523010 0.000000
					}
				}
				JOINT newVegas:Left_Peck
				{
					OFFSET 17.239599 -5.132599 25.482599
					CHANNELS 3 Xrotation Yrotation Zrotation
					End Site
					{
						OFFSET 0.000000 22.523010 0.000000
					}
				}
				JOINT newVegas:Right_Peck
				{
					OFFSET -17.239599 -5.132202 25.482599
					CHANNELS 3 Xrotation Yrotation Zrotation
					End Site
					{
						OFFSET 0.000000 22.523010 0.000000
					}
				}
				JOINT newVegas:Right_Collar
				{
					OFFSET -18.625099 8.655792 8.828100
					CHANNELS 3 Xrotation Yrotation Zrotation
					JOINT newVegas:Right_Collar1
					{
						OFFSET -14.783401 10.539993 -1.259500
						CHANNELS 3 Xrotation Yrotation Zrotation
						End Site
						{
							OFFSET 0.000000 18.199631 0.000000
						}
					}
				}
			}
		}
		JOINT newVegas:Belly
		{
			OFFSET 0.000000 -6.540398 9.014299
			CHANNELS 3 Xrotation Yrotation Zrotation
			End Site
			{
				OFFSET 0.000000 11.566666 0.000000
			}
		}
	}
	JOINT newVegas:ElvisFacialAnim_Joint
	{
		OFFSET 1.000000 -95.330101 -8.825800
		CHANNELS 3 Xrotation Yrotation Zrotation
		End Site
		{
			OFFSET 0.000000 35.315800 0.000000
		}
	}
}
MOTION
Frames: 4
Frame Time: 0.033333
-0.159931 93.559227 3.937830 -7.178096 -4.154100 2.856867 -0.000000 0.000000 -0.000000 -12.438908 11.000764 7.510820 16.145995 7.108647 1.438642 4.731700 0.318775 -7.591040 0.000000 -0.000000 -0.000000 0.000000 0.000001 0.000000 6.940573 -15.858091 -5.986257 22.407732 -8.948566 -3.382236 -21.559205 -6.562515 9.354105 -0.000000 -0.000002 -0.000000 -0.000003 -0.000001 0.000001 5.342071 2.010183 -1.947869 1.489154 0.734435 -0.704851 1.483559 0.737193 -0.692727 0.964472 0.868898 0.352846 0.964519 0.868898 0.352846 0.000000 -0.000000 -0.000000 0.964602 0.868893 0.352845 0.964524 0.868904 0.352844 0.000000 0.000000 -0.000000 0.000000 -0.000000 -0.000000 -0.595279 -16.332007 -20.041807 3.678383 -10.652208 -35.222073 0.000015 -77.032779 0.000008 -122.798851 -3.433311 10.279143 -12.800133 -17.470143 4.121638 1.000147 0.731302 -1.438313 0.000000 -0.000003 -0.000003 -3.532560 4.254357 -63.954579 3.402071 5.315520 -65.218956 -0.000001 -0.000000 -0.000000 2.434382 7.296022 -69.364082 3.297859 5.266343 -64.088628 -0.000002 0.000001 -0.000001 4.717024 8.075479 -77.582281 2.056301 4.456870 -49.517693 0.000001 0.000001 0.000002 6.410341 8.363737 -80.414583 1.722711 4.149874 -45.074392 0.000001 -0.000003 -0.000000 -0.000004 0.000000 0.000003 -0.000004 0.000000 0.000003 -0.000004 -0.000000 0.000003 0.000001 0.000000 0.000002 0.000002 0.000000 -0.000001 0.000001 0.000000 0.000002 0.000000 0.000001 0.000001 0.754309 18.436736 11.542199 10.689827 23.559312 38.375005 0.000910 97.831518 -0.000871 -34.546892 -20.180678 22.179147 20.470567 7.475591 18.843589 4.151719 -12.160917 -33.848006 -0.000002 -0.000005 -0.000001 -0.887061 1.427990 12.684524 1.917412 -3.767441 53.934333 0.000002 -0.000001 0.000001 0.770897 -5.199584 54.618823 5.563851 -4.568236 101.238573 0.000001 -0.000002 -0.000000 6.934490 -8.544267 63.908769 2.909321 -4.317382 67.934735 0.000000 0.000001 -0.000001 8.373412 -8.171788 73.989923 2.173657 -3.940941 57.745370 -0.000003 0.000002 -0.000000 -0.000001 -0.000001 -0.000001 -0.000001 0.000001 0.000002 -0.000001 -0.000001 -0.000003 0.000000 0.000000 -0.000003 0.000001 0.000000 -0.000003 0.000000 0.000000 -0.000003 0.000001 -0.000000 -0.000002 0.000000 0.000000 -0.000000 0.000000 0.000000 -0.000000 0.000000 0.000000 -0.000000 0.000000 0.000000 -0.000000 0.000000 0.000000 -0.000000 0.000000 0.000000 -0.000000 0.000000 0.000000 -0.000000 0.000000 0.000000 -0.000000 -0.000000 0.000000 -0.000000 
-0.102043 93.573402 3.956795 -7.174883 -4.191144 2.851880 -0.000000 0.000000 -0.000000 -12.392935 11.008790 7.467944 16.111223 7.152938 1.435008 4.716256 0.317665 -7.553545 0.000000 -0.000000 -0.000000 0.000000 0.000003 0.000000 6.960566 -15.857336 -6.022843 22.320908 -8.900851 -3.397365 -21.489136 -6.573073 9.385582 -0.000000 0.000000 0.000000 -0.000003 -0.000002 0.000000 5.329427 2.010133 -1.947311 1.489154 0.734435 -0.704851 1.483559 0.737193 -0.692727 0.964484 0.866002 0.352877 0.964481 0.866001 0.352877 0.000000 0.000000 -0.000000 0.964482 0.866002 0.352877 0.964481 0.866001 0.352877 0.000000 0.000000 0.000000 0.000000 0.000000 -0.000000 -0.593039 -16.332731 -20.023304 3.669444 -10.696548 -35.254264 0.000088 -76.972134 0.000080 -122.794124 -3.417909 10.261587 -12.800131 -17.470140 4.121638 1.000146 0.731305 -1.438311 -0.000000 -0.000002 -0.000003 -3.532558 4.254356 -63.954586 3.402071 5.315522 -65.218956 0.000003 -0.000001 -0.000001 2.434384 7.296022 -69.364082 3.297862 5.266341 -64.088628 -0.000001 -0.000002 0.000003 4.717023 8.075475 -77.582281 2.056300 4.456874 -49.517690 -0.000003 0.000001 0.000002 6.410341 8.363736 -80.414590 1.722717 4.149870 -45.074389 -0.000002 -0.000002 0.000001 -0.000004 0.000002 0.000002 -0.000004 0.000002 0.000002 -0.000005 0.000002 0.000002 0.000000 0.000000 0.000002 0.000001 0.000000 -0.000001 0.000000 0.000000 0.000002 -0.000001 -0.000000 0.000001 0.754309 18.436736 11.542201 10.703730 23.543233 38.369459 0.001268 97.814354 -0.001281 -34.556020 -20.163541 22.177486 20.470565 7.475594 18.843587 4.151721 -12.160915 -33.847996 -0.000002 -0.000005 -0.000001 -0.887060 1.427990 12.684525 1.917412 -3.767441 53.934333 0.000002 -0.000000 0.000002 0.770898 -5.199581 54.618823 5.563854 -4.568234 101.238573 0.000001 -0.000001 0.000002 6.934491 -8.544261 63.908769 2.909319 -4.317383 67.934735 -0.000001 0.000001 -0.000001 8.373415 -8.171791 73.989930 2.173659 -3.940941 57.745370 -0.000001 -0.000000 -0.000001 0.000001 -0.000001 -0.000001 -0.000003 -0.000001 0.000000 0.000001 -0.000001 -0.000001 -0.000001 0.000001 -0.000001 -0.000001 0.000001 -0.000001 -0.000001 0.000001 -0.000001 -0.000001 0.000001 0.000001 0.000000 -0.000000 0.000000 0.000000 -0.000000 0.000000 0.000000 -0.000000 0.000000 0.000000 -0.000000 0.000000 0.000000 -0.000000 0.000000 0.000000 -0.000000 0.000000 0.000000 -0.000000 0.000000 -0.000000 0.000000 0.000000 -0.000000 0.000000 -0.000000 
-0.045049 93.590813 3.981930 -7.168430 -4.228532 2.839706 0.000000 0.000000 -0.000000 -12.342668 11.010360 7.427006 16.094429 7.228376 1.433102 4.677530 0.318799 -7.517271 -0.000000 0.000002 0.000000 -0.000000 0.000001 -0.000000 6.994943 -15.841312 -6.026739 22.244094 -8.859687 -3.409151 -21.447364 -6.583135 9.313481 0.000000 0.000002 0.000000 -0.000000 -0.000002 0.000000 5.316770 2.010275 -1.947142 1.489154 0.734435 -0.704852 1.483559 0.737193 -0.692727 0.964470 0.862858 0.352917 0.964471 0.862858 0.352917 0.000000 0.000000 -0.000000 0.964472 0.862858 0.352917 0.964474 0.862858 0.352918 -0.000000 -0.000000 -0.000000 0.000000 0.000000 0.000000 -0.588878 -16.300487 -20.013414 3.643402 -10.769014 -35.293206 0.000153 -76.897050 0.000158 -122.770123 -3.380934 10.263506 -12.800134 -17.470145 4.121644 1.000148 0.731305 -1.438311 0.000002 -0.000002 0.000000 -3.532560 4.254356 -63.954579 3.402071 5.315519 -65.218956 -0.000003 0.000000 -0.000001 2.434382 7.296023 -69.364082 3.297858 5.266345 -64.088621 -0.000000 0.000001 -0.000002 4.717022 8.075480 -77.582281 2.056303 4.456872 -49.517693 -0.000001 0.000001 0.000003 6.410343 8.363740 -80.414583 1.722712 4.149874 -45.074392 0.000001 -0.000002 -0.000001 0.000003 0.000001 0.000001 0.000003 0.000001 0.000001 0.000002 0.000001 0.000001 -0.000000 -0.000003 -0.000000 0.000000 -0.000003 -0.000001 -0.000000 -0.000003 -0.000000 -0.000001 -0.000003 -0.000001 0.754309 18.436736 11.542200 10.717534 23.527227 38.363940 -0.001213 97.796691 0.001234 -34.565528 -20.145740 22.175748 20.470570 7.475587 18.843594 4.151715 -12.160919 -33.848003 -0.000001 -0.000002 0.000003 -0.887061 1.427987 12.684524 1.917411 -3.767443 53.934336 -0.000001 -0.000001 -0.000001 0.770899 -5.199587 54.618823 5.563852 -4.568234 101.238580 -0.000002 0.000003 -0.000001 6.934491 -8.544266 63.908769 2.909314 -4.317378 67.934735 -0.000001 0.000001 -0.000000 8.373413 -8.171792 73.989923 2.173659 -3.940943 57.745370 -0.000001 -0.000000 0.000002 -0.000003 -0.000001 -0.000002 0.000001 -0.000001 -0.000002 -0.000003 -0.000001 -0.000000 -0.000001 0.000002 -0.000000 -0.000001 0.000002 0.000001 -0.000001 0.000002 -0.000000 -0.000001 0.000002 0.000003 0.000000 0.000000 0.000000 0.000000 0.000000 0.000000 0.000000 0.000000 0.000000 0.000000 0.000000 0.000000 0.000000 0.000000 0.000000 0.000000 0.000000 0.000000 0.000000 0.000000 0.000000 0.000000 0.000000 0.000000 0.000000 0.000000 -0.000000 
0.008735 93.605888 4.006254 -7.162392 -4.265890 2.827438 0.000000 0.000000 -0.000000 -12.300532 11.008517 7.382541 16.091067 7.265895 1.439754 4.629222 0.319885 -7.489191 0.000000 -0.000000 -0.000000 0.000000 -0.000001 -0.000000 7.035652 -15.894738 -6.080949 22.115734 -8.856148 -3.410103 -21.362839 -6.497091 9.379637 0.000000 0.000000 0.000000 0.000000 0.000001 -0.000001 5.304119 2.010315 -1.947086 1.489154 0.734435 -0.704851 1.483559 0.737193 -0.692727 0.964371 0.859522 0.352577 0.964373 0.859522 0.352577 -0.000000 0.000000 0.000000 0.964369 0.859521 0.352577 0.964369 0.859523 0.352577 0.000000 0.000000 -0.000000 -0.000000 0.000000 0.000000 -0.595711 -16.316888 -20.031702 3.626527 -10.773922 -35.301986 -0.000003 -76.854402 0.000009 -122.750999 -3.350372 10.272657 -12.800131 -17.470143 4.121641 1.000146 0.731304 -1.438313 -0.000000 -0.000002 -0.000005 -3.532557 4.254357 -63.954579 3.402070 5.315520 -65.218956 0.000001 -0.000001 0.000002 2.434384 7.296023 -69.364075 3.297858 5.266342 -64.088635 -0.000001 -0.000001 0.000000 4.717025 8.075477 -77.582281 2.056299 4.456872 -49.517690 0.000001 -0.000001 0.000002 6.410344 8.363739 -80.414583 1.722714 4.149873 -45.074389 0.000000 -0.000003 0.000000 -0.000001 0.000002 -0.000000 -0.000001 0.000002 -0.000000 -0.000001 0.000001 -0.000000 0.000000 -0.000002 0.000002 0.000001 -0.000002 -0.000001 0.000000 -0.000002 0.000002 -0.000001 -0.000001 0.000001 0.754309 18.436736 11.542198 10.729606 23.512182 38.362219 0.001079 97.778611 -0.001091 -34.579728 -20.129227 22.172252 20.470569 7.475588 18.843590 4.151717 -12.160921 -33.847996 0.000000 -0.000001 0.000001 -0.887062 1.427986 12.684521 1.917409 -3.767447 53.934336 -0.000001 -0.000001 0.000003 0.770897 -5.199587 54.618823 5.563854 -4.568232 101.238580 -0.000000 0.000001 0.000004 6.934491 -8.544267 63.908769 2.909322 -4.317381 67.934735 0.000003 -0.000001 -0.000001 8.373411 -8.171794 73.989923 2.173657 -3.940939 57.745370 -0.000001 -0.000002 0.000001 -0.000000 -0.000001 0.000002 0.000002 0.000000 0.000002 -0.000000 -0.000001 0.000002 -0.000002 0.000001 0.000001 -0.000002 0.000001 0.000001 -0.000002 0.000001 0.000001 -0.000002 0.000001 0.000003 0.000000 0.000000 -0.000000 0.000000 0.000000 -0.000000 0.000000 0.000000 -0.000000 0.000000 0.000000 -0.000000 0.000000 0.000000 -0.000000 0.000000 0.000000 -0.000000 0.000000 0.000000 -0.000000 -0.000000 -0.000000 0.000000 0.000000 0.000000 -0.000000 
